<?xml version="1.0" encoding="UTF-8" standalone="no"?>
<!-- Created with Inkscape (http://www.inkscape.org/) -->

<svg
   width="6"
   height="12"
   viewBox="0 0 1.5875 3.175"
   version="1.1"
   id="svg1"
   inkscape:version="1.3.2 (091e20e, 2023-11-25, custom)"
   sodipodi:docname="font.svg"
   xmlns:inkscape="http://www.inkscape.org/namespaces/inkscape"
   xmlns:sodipodi="http://sodipodi.sourceforge.net/DTD/sodipodi-0.dtd"
   xmlns="http://www.w3.org/2000/svg"
   xmlns:svg="http://www.w3.org/2000/svg">
  <sodipodi:namedview
     id="namedview1"
     pagecolor="#505050"
     bordercolor="#ffffff"
     borderopacity="1"
     inkscape:showpageshadow="0"
     inkscape:pageopacity="0"
     inkscape:pagecheckerboard="1"
     inkscape:deskcolor="#505050"
     inkscape:document-units="mm"
     inkscape:zoom="22.627417"
     inkscape:cx="-10.31934"
     inkscape:cy="11.070641"
     inkscape:window-width="1920"
     inkscape:window-height="1027"
     inkscape:window-x="-8"
     inkscape:window-y="-8"
     inkscape:window-maximized="1"
     inkscape:current-layer="layer1"
     showguides="true"
     inkscape:lockguides="true"
     showgrid="false"
     inkscape:pageshadow="2"
     inkscape:snap-global="true"
     inkscape:object-paths="true"
     inkscape:snap-intersection-paths="true"
     inkscape:snap-to-guides="true"
     inkscape:snap-grids="true"
     inkscape:snap-smooth-nodes="true">
    <sodipodi:guide
       position="0,3.175"
       orientation="0,6"
       id="guide1"
       inkscape:locked="true" />
    <sodipodi:guide
       position="1.5875,3.175"
       orientation="12,0"
       id="guide2"
       inkscape:locked="true" />
    <sodipodi:guide
       position="1.5875,0"
       orientation="0,-6"
       id="guide3"
       inkscape:locked="true" />
    <sodipodi:guide
       position="0,0"
       orientation="-12,0"
       id="guide4"
       inkscape:locked="true" />
    <sodipodi:guide
       position="0,1.05833"
       orientation="0,1"
       id="guide22"
       inkscape:locked="true"
       inkscape:label=""
       inkscape:color="rgb(0,134,229)" />
    <sodipodi:guide
       position="0,2.9104167"
       orientation="0,1"
       id="guide24"
       inkscape:locked="true"
       inkscape:label=""
       inkscape:color="rgb(0,134,229)" />
    <sodipodi:guide
       position="0,2.6458333"
       orientation="0,1"
       id="guide25"
       inkscape:label=""
       inkscape:locked="true"
       inkscape:color="rgb(0,134,229)" />
    <sodipodi:guide
       position="0,2.1166667"
       orientation="0,1"
       id="guide26"
       inkscape:label=""
       inkscape:locked="true"
       inkscape:color="rgb(0,134,229)" />
    <sodipodi:guide
       position="0,1.8520833"
       orientation="0,1"
       id="guide27"
       inkscape:label=""
       inkscape:locked="true"
       inkscape:color="rgb(0,134,229)" />
    <sodipodi:guide
       position="0,1.5875"
       orientation="0,1"
       id="guide28"
       inkscape:label=""
       inkscape:locked="true"
       inkscape:color="rgb(0,134,229)" />
    <sodipodi:guide
       position="0,1.3229167"
       orientation="0,1"
       id="guide29"
       inkscape:label=""
       inkscape:locked="true"
       inkscape:color="rgb(0,134,229)" />
    <sodipodi:guide
       position="0,0.52916667"
       orientation="0,1"
       id="guide30"
       inkscape:label=""
       inkscape:locked="true"
       inkscape:color="rgb(0,134,229)" />
    <sodipodi:guide
       position="0,0.26458333"
       orientation="0,1"
       id="guide31"
       inkscape:label=""
       inkscape:locked="true"
       inkscape:color="rgb(0,134,229)" />
    <sodipodi:guide
       position="0.26458333,3.175"
       orientation="-1,0"
       id="guide33"
       inkscape:locked="true"
       inkscape:label=""
       inkscape:color="rgb(0,134,229)" />
    <sodipodi:guide
       position="0.52916667,3.175"
       orientation="-1,0"
       id="guide34"
       inkscape:label=""
       inkscape:locked="true"
       inkscape:color="rgb(0,134,229)" />
    <sodipodi:guide
       position="0.79375,3.175"
       orientation="-1,0"
       id="guide35"
       inkscape:label=""
       inkscape:locked="true"
       inkscape:color="rgb(0,134,229)" />
    <sodipodi:guide
       position="1.3229167,3.175"
       orientation="-1,0"
       id="guide37"
       inkscape:label=""
       inkscape:locked="true"
       inkscape:color="rgb(0,134,229)" />
    <sodipodi:guide
       position="0,0.79375"
       orientation="0,1"
       id="guide40"
       inkscape:label=""
       inkscape:locked="true"
       inkscape:color="rgb(0,134,229)" />
    <sodipodi:guide
       position="0,2.38125"
       orientation="0,1"
       id="guide41"
       inkscape:label=""
       inkscape:locked="true"
       inkscape:color="rgb(0,134,229)" />
    <sodipodi:guide
       position="0.052916667,3.175"
       orientation="-1,0"
       id="guide24826"
       inkscape:label=""
       inkscape:locked="true"
       inkscape:color="rgb(0,134,229)" />
    <sodipodi:guide
       position="1.5345833,3.175"
       orientation="-1,0"
       id="guide24828"
       inkscape:label=""
       inkscape:locked="true"
       inkscape:color="rgb(0,134,229)" />
    <sodipodi:guide
       position="0.10583333,3.175"
       orientation="-1,0"
       id="guide24830"
       inkscape:label=""
       inkscape:locked="true"
       inkscape:color="rgb(0,134,229)" />
    <sodipodi:guide
       position="1.4816667,3.175"
       orientation="-1,0"
       id="guide24832"
       inkscape:label=""
       inkscape:locked="true"
       inkscape:color="rgb(0,134,229)" />
    <sodipodi:guide
       position="0,3.12208"
       orientation="0,1"
       id="guide24834"
       inkscape:label=""
       inkscape:locked="true"
       inkscape:color="rgb(0,134,229)" />
    <sodipodi:guide
       position="0,0.052916667"
       orientation="0,1"
       id="guide24836"
       inkscape:label=""
       inkscape:locked="true"
       inkscape:color="rgb(0,134,229)" />
    <sodipodi:guide
       position="1.0583333,3.175"
       orientation="-1,0"
       id="guide55"
       inkscape:locked="true"
       inkscape:label=""
       inkscape:color="rgb(0,134,229)" />
  </sodipodi:namedview>
  <defs
     id="defs1">
    <inkscape:path-effect
       effect="fillet_chamfer"
       id="path-effect40"
       is_visible="true"
       lpeversion="1"
       nodesatellites_param="F,0,0,1,0,0,0,1 @ F,0,0,1,0,0,0,1 @ F,0,0,1,0,0,0,1 @ F,0,0,1,0,0,0,1 | F,0,0,1,0,0,0,1 @ F,0,0,1,0,0,0,1 @ F,0,0,1,0,0,0,1 @ F,0,0,1,0,0,0,1"
       radius="0"
       unit="px"
       method="auto"
       mode="F"
       chamfer_steps="1"
       flexible="false"
       use_knot_distance="true"
       apply_no_radius="true"
       apply_with_radius="true"
       only_selected="false"
       hide_knots="false" />
  </defs>
  <g
     inkscape:groupmode="layer"
     id="layer3"
     inkscape:label="special"
     style="display:inline">
    <path
       style="-inkscape-font-specification:'Cascadia Code';display:none;stroke-width:0.265"
       d="M 1.2216309,2.3812501 V 1.1255129 q 0,-0.17053227 -0.127124,-0.17053227 -0.1612305,0 -0.1612305,0.22324217 L 0.82165531,0.94257829 h 0.12712402 q 0.007751,-0.0961182 0.0759644,-0.16588135 0.069763,-0.0697632 0.1999878,-0.0697632 0.1705322,0 0.2480468,0.0914673 0.077515,0.0914673 0.077515,0.29610596 v 1.2867431 z m -1.18442382,0 V 0.73793962 h 0.29145507 l 0.037207,0.34726558 v 1.2960449 z m 0.61701659,0 V 1.094507 q 0,-0.13952637 -0.13022461,-0.13952637 -0.15812988,0 -0.15812988,0.22324217 L 0.26975102,0.94257829 h 0.10541992 q 0.0186035,-0.23564453 0.28215331,-0.23564453 0.12867432,0 0.20153809,0.0883667 0.0744141,0.0883667 0.0744141,0.26820064 v 1.317749 z m 2.34094233,0 V 1.311548 q 0,-0.1488281 -0.077515,-0.2294433 -0.077515,-0.080615 -0.217041,-0.080615 -0.3875733,0 -0.3875733,0.4557861 L 2.216919,1.0355959 H 2.344043 Q 2.357996,0.86971452 2.4649659,0.78909929 2.5719361,0.70693379 2.778125,0.70693379 q 0.2604492,0 0.4030762,0.15812988 Q 3.3238281,1.0231935 3.3238281,1.311548 v 1.0697021 z m -1.010791,0 V 0.73793962 h 0.2976563 l 0.031006,0.34726558 v 1.2960449 z m 2.5300782,0.031006 q -0.3410645,0 -0.5302002,-0.2232422 Q 3.7951172,1.9657717 3.7951172,1.559595 q 0,-0.4077271 0.1891358,-0.62941895 0.1891357,-0.22324219 0.5302002,-0.22324219 0.3426147,0 0.5302001,0.22324219 0.1891358,0.22169185 0.1891358,0.62941895 0,0.4061767 -0.1891358,0.6294189 Q 4.8570679,2.412256 4.5144532,2.4122561 Z m 0,-0.2945557 q 0.1813842,0 0.2790527,-0.1457275 0.099219,-0.1457275 0.099219,-0.4123779 0,-0.2682007 -0.099219,-0.4123779 -0.097669,-0.1457276 -0.2790527,-0.1457276 -0.1813843,0 -0.2806031,0.1457276 -0.097668,0.1441772 -0.097668,0.4123779 0,0.2666504 0.097668,0.4123779 0.099219,0.1457275 0.2806031,0.1457275 z M 5.7050782,3.094385 V 0.73793962 H 6.0027344 L 6.0337403,1.0852052 V 3.0943849 Z M 6.5003784,2.412256 q -0.1891357,0 -0.3054077,-0.086816 Q 6.0802491,2.2386232 6.0647461,2.0835939 H 5.9221192 L 6.0337403,1.6154054 q 0,0.2542481 0.099219,0.386023 0.1007691,0.1317749 0.2945557,0.1317749 0.1984375,0 0.3007568,-0.1410767 0.1023193,-0.1410766 0.1023193,-0.4170288 0,-0.2914551 -0.1023193,-0.4402832 Q 6.6259525,0.98598649 6.427515,0.98598649 q -0.1937866,0 -0.2945557,0.13177491 -0.099219,0.1317749 -0.099219,0.3860229 L 5.9221192,1.0355959 h 0.127124 q 0.021704,-0.15502933 0.1395264,-0.24184573 0.1193725,-0.0868164 0.3116088,-0.0868164 0.3240113,0 0.4898926,0.2201416 0.1658814,0.22014163 0.1658814,0.64802243 0,0.4123779 -0.1658814,0.6247681 Q 6.8243897,2.412256 6.5003784,2.412256 Z"
       id="text38"
       aria-label="mnop" />
    <text
       xml:space="preserve"
       style="font-style:normal;font-variant:normal;font-weight:normal;font-stretch:normal;font-size:3.175px;font-family:'Cascadia Code';-inkscape-font-specification:'Cascadia Code';display:inline;fill:#000000;stroke-width:0.264583"
       x="-3.8137774"
       y="2.3812499"
       id="text1"><tspan
         sodipodi:role="line"
         style="font-style:normal;font-variant:normal;font-weight:normal;font-stretch:normal;font-size:3.175px;font-family:'Cascadia Code';-inkscape-font-specification:'Cascadia Code';stroke-width:0.264583"
         x="-3.8137774"
         y="2.3812499"
         id="tspan62">S</tspan></text>
  </g>
  <g
     inkscape:groupmode="layer"
     id="layer14"
     inkscape:label="GlyphLayer-A"
     style="display:none">
    <path
       id="path33983"
       style="color:#000000;display:inline;fill:#000000;stroke-width:0.999999;-inkscape-stroke:none"
       d="M 0.604097,0.0527099 0.0527099,2.38125 H 0.325561 L 0.481624,1.72082 H 1.10587 L 1.26194,2.38125 H 1.53479 L 0.983401,0.0527099 Z M 0.776179,0.476456 h 0.03514 L 1.04283,1.45521 H 0.544669 Z" />
  </g>
  <g
     inkscape:groupmode="layer"
     id="layer15"
     inkscape:label="GlyphLayer-B"
     style="display:none">
    <path
       id="path42096"
       style="color:#000000;fill:#000000;stroke-width:0.999999;-inkscape-stroke:none"
       d="M 0.793749,0.0527099 0.370003,0.0532266 H 0.106453 V 2.38125 h 0.26355 0.476663 c 0.391474,0 0.687914,-0.17248 0.687914,-0.66146 0,-0.21818 -0.09354,-0.52503 -0.580117,-0.52503 0.272557,0 0.368457,-0.339841 0.368457,-0.506844 0,-0.423333 -0.26459,-0.6352061 -0.529171,-0.6352061 z M 0.37052,0.317293 h 0.290938 c 0.313862,0 0.396872,0.162022 0.396872,0.370623 0,0.195369 0,0.370414 -0.396872,0.370414 H 0.370003 Z M 0.370003,1.32292 H 0.951879 C 1.20014,1.32292 1.27,1.47641 1.27,1.71979 1.27,1.92788 1.21475,2.11666 0.846666,2.11666 H 0.370003 Z" />
  </g>
  <g
     inkscape:groupmode="layer"
     id="layer17"
     inkscape:label="GlyphLayer-C"
     style="display:none">
    <path
       id="path51164-9"
       style="color:#000000;display:inline;fill:#000000;stroke-width:1;-inkscape-stroke:none"
       d="m 0.92604167,0.05270996 c -0.5746419,0 -0.873125,0.47635674 -0.873125,1.16427004 0,0.635 0.3178679,1.16427 0.873125,1.16427 0.13229173,0 0.45017873,-0.013092 0.60854173,-0.084856 L 1.4816668,2.0545484 c -0.1863559,0.067209 -0.4233334,0.062118 -0.55562513,0.062118 -0.3704166,0 -0.6087121,-0.3969782 -0.6085416,-0.8996866 1.885e-4,-0.55562499 0.238125,-0.8996867 0.6085416,-0.8996867 0.13229173,0 0.35602363,0.003276 0.55562513,0.11851634 L 1.5345834,0.18969816 C 1.3229168,0.06749239 1.1093846,0.05270996 0.92604167,0.05270996 Z" />
  </g>
  <g
     inkscape:groupmode="layer"
     id="layer18"
     inkscape:label="GlyphLayer-D"
     style="display:none">
    <path
       id="path42096-9"
       style="color:#000000;display:inline;fill:#000000;stroke-width:0.999999;-inkscape-stroke:none"
       d="M 0.793749,0.0529166 0.10697,0.0532267 V 2.38125 H 0.793749 C 1.12384,2.38125 1.53443,2.27376 1.53458,1.21708 1.53434,0.172211 1.13663,0.0527618 0.793749,0.0529166 Z M 0.37052,0.3175 H 0.793749 C 1.13116,0.3175 1.27,0.578779 1.27,1.21708 c 0,0.635 -0.13598,0.89958 -0.476251,0.89958 H 0.37052 Z" />
  </g>
  <g
     inkscape:groupmode="layer"
     id="g5"
     inkscape:label="GlyphLayer-E"
     style="display:none">
    <path
       id="path5"
       style="color:#000000;display:inline;fill:#000000;stroke-width:0.999999;-inkscape-stroke:none"
       d="M 1.48166,0.0529166 0.10697,0.0532267 V 2.38125 H 1.48166 V 2.11666 H 0.37052 V 1.32292 H 1.48166 V 1.05833 H 0.37052 V 0.317293 L 1.48166,0.3175 Z" />
  </g>
  <g
     inkscape:groupmode="layer"
     id="g6"
     inkscape:label="GlyphLayer-F"
     style="display:none">
    <path
       id="path6"
       style="-inkscape-stroke:none;color:#000000;display:inline;fill:#000000;stroke-width:0.99999938599"
       d="M 1.48166 0.0529166 L 0.105833 0.0532267 L 0.105833 2.38125 L 0.37052 2.38125 L 0.37052 1.32292 L 0.926041 1.32292 L 0.926041 1.05833 L 0.37052 1.05833 L 0.37052 0.3175 L 1.48166 0.3175 Z" />
  </g>
  <g
     inkscape:groupmode="layer"
     id="g7"
     inkscape:label="GlyphLayer-G"
     style="display:none">
    <path
       id="path7"
       style="color:#000000;display:inline;fill:#000000;stroke-width:1;-inkscape-stroke:none"
       d="m 0.92604167,0.05270996 c -0.5746419,0 -0.873125,0.47635674 -0.873125,1.16427004 0,0.635 0.3178679,1.16427 0.873125,1.16427 0.13229173,0 0.45017873,-0.013092 0.60854173,-0.084856 l -1e-7,-0.973474 -0.60854163,-9.654e-4 V 1.5875 H 1.2741687 v 0.5143503 c -0.1318389,0.016968 -0.2621113,0.014816 -0.34812703,0.014816 -0.3704166,0 -0.6087121,-0.3969782 -0.6085416,-0.8996866 1.885e-4,-0.55562499 0.238125,-0.8996867 0.6085416,-0.8996867 0.13229173,0 0.35602363,0.003276 0.55562513,0.11851634 L 1.5345834,0.18969816 C 1.3229168,0.06749239 1.1093846,0.05270996 0.92604167,0.05270996 Z" />
  </g>
  <g
     inkscape:groupmode="layer"
     id="g13"
     inkscape:label="GlyphLayer-H"
     style="display:none">
    <path
       id="path12"
       style="-inkscape-stroke:none;color:#000000;display:inline;fill:#000000;stroke-width:0.99999938599"
       d="M 0.370416 0.0529166 L 0.10697 0.0532267 L 0.10697 2.38125 L 0.370416 2.38125 L 0.37052 1.32292 L 1.21708 1.32292 L 1.21708 2.38125 L 1.48166 2.38125 L 1.48166 0.0529166 L 1.21708 0.0529166 L 1.21708 1.05833 L 0.37052 1.05833 Z" />
  </g>
  <g
     inkscape:groupmode="layer"
     id="g14"
     inkscape:label="GlyphLayer-I"
     style="display:none">
    <path
       id="path13"
       style="-inkscape-stroke:none;color:#000000;display:inline;fill:#000000;stroke-width:0.99999938599"
       d="M 0.10697 0.0529149 L 0.10697 0.317501 L 0.661458 0.317501 L 0.661458 2.11666 L 0.105833 2.11666 L 0.105833 2.38125 L 1.48166 2.38125 L 1.48166 2.11666 L 0.926041 2.11666 L 0.926041 0.317501 L 1.48166 0.317501 L 1.48166 0.0529149 Z" />
  </g>
  <g
     inkscape:groupmode="layer"
     id="g15"
     inkscape:label="GlyphLayer-J"
     style="display:none">
    <path
       id="path14"
       style="-inkscape-stroke:none;color:#000000;display:inline;fill:#000000;stroke-width:0.99999938599"
       d="M 0.396875 0.0529149 L 0.396875 0.317501 L 1.13771 0.317501 L 1.13771 1.5875 C 1.13771 1.95104 1.05833 2.11666 0.793749 2.11666 C 0.529166 2.11666 0.449791 1.94838 0.449791 1.5875 L 0.185208 1.5875 C 0.185208 2.11666 0.412622 2.37298 0.793749 2.37298 C 1.32292 2.37298 1.40229 2.04358 1.40229 1.5875 L 1.40229 0.317501 L 1.48166 0.317501 L 1.48166 0.0529149 Z" />
  </g>
  <g
     inkscape:groupmode="layer"
     id="g16"
     inkscape:label="GlyphLayer-K"
     style="display:none">
    <path
       id="path15"
       style="color:#000000;display:inline;fill:#000000;stroke-width:0.999999;-inkscape-stroke:none"
       d="M 1.15683,0.0529166 0.37052,1.10277 V 0.0527099 H 0.105937 V 2.38125 H 0.37052 V 1.54461 L 0.555004,1.29863 1.17898,2.38125 H 1.48166 L 0.727603,1.06867 1.48166,0.0529166 Z" />
  </g>
  <g
     inkscape:groupmode="layer"
     id="g25"
     inkscape:label="GlyphLayer-L"
     style="display:none">
    <path
       id="path25"
       style="color:#000000;display:inline;fill:#000000;stroke-width:0.999999;-inkscape-stroke:none"
       d="M 0.105833,0.0529149 V 2.38125 H 1.48166 V 2.11666 H 0.370416 V 0.0529166 Z" />
  </g>
  <g
     inkscape:groupmode="layer"
     id="g26"
     inkscape:label="GlyphLayer-M"
     style="display:none">
    <path
       id="path26"
       style="color:#000000;display:inline;fill:#000000;stroke-width:1;-inkscape-stroke:none"
       d="M 0.05270996,0.05270996 V 2.38125 H 0.31729329 V 0.59376221 L 0.6346468,1.8520833 H 0.9528532 L 1.2702067,0.59376221 V 2.38125 H 1.53479 V 0.05270996 H 1.1342977 L 0.79375,1.4024984 0.45320231,0.05270996 Z" />
  </g>
  <g
     inkscape:groupmode="layer"
     id="g39"
     inkscape:label="GlyphLayer-N"
     style="display:none">
    <path
       id="path39"
       style="-inkscape-stroke:none;color:#000000;display:inline;fill:#000000;stroke-width:0.99999938599"
       d="M 0.43473 0.0529166 L 0.105937 0.0527099 L 0.105937 2.38125 L 0.37052 2.38125 L 0.37052 0.569474 L 1.15309 2.38125 L 1.48156 2.38125 L 1.48156 0.0527099 L 1.21698 0.0527099 L 1.21698 1.86293 Z" />
  </g>
  <g
     inkscape:groupmode="layer"
     id="layer16"
     inkscape:label="GlyphLayer-O"
     style="display:none">
    <path
       style="color:#000000;display:inline;fill:#000000;-inkscape-stroke:none"
       d="M 0.79375,0.0529167 C 0.26458333,0.0529167 0,0.52916998 0,1.2170833 0,1.8520833 0.26536458,2.38125 0.79375,2.38125 1.3236979,2.38125 1.5875,1.8520833 1.5875,1.2170833 1.5875,0.52917 1.3229167,0.0529167 0.79375,0.0529167 Z m 0,0.2645833 c 0.3704167,0 0.5291667,0.3439583 0.5291667,0.8995833 0,0.5027084 -0.15875,0.8995834 -0.5291667,0.8995834 -0.37041667,0 -0.52933723,-0.396875 -0.52916667,-0.8995834 C 0.26477185,0.6614583 0.42333333,0.3175 0.79375,0.3175 Z"
       id="path51164" />
  </g>
  <g
     inkscape:groupmode="layer"
     id="g41"
     inkscape:label="GlyphLayer-P"
     style="display:none">
    <path
       id="path41"
       style="-inkscape-stroke:none;color:#000000;display:inline;fill:#000000;stroke-width:0.99999938599"
       d="M 0.105937 0.0527099 L 0.105937 2.38125 L 0.37052 2.38125 L 0.37052 1.27 L 0.794049 1.27 C 1.21708 1.27 1.48166 1.05833 1.48166 0.661458 C 1.48166 0.264583 1.21708 0.0529166 0.793749 0.0529166 C 0.62914 0.0529166 0.105937 0.0527099 0.105937 0.0527099 Z M 0.37052 0.3175 L 0.793749 0.3175 C 1.07593 0.3175 1.21708 0.446595 1.21708 0.661458 C 1.21708 0.874169 1.0705 1.00542 0.793749 1.00542 L 0.37052 1.00542 Z" />
  </g>
  <g
     inkscape:groupmode="layer"
     id="g42"
     inkscape:label="GlyphLayer-Q"
     style="display:none">
    <path
       id="path42"
       style="color:#000000;display:inline;fill:#000000;-inkscape-stroke:none"
       d="M 0.79375,0.05270996 C 0.26458386,0.05270996 0,0.52906735 0,1.21698 c 0,0.6331013 0.26386121,1.1611199 0.78909912,1.16427 0.0397465,0.1291623 0.0896797,0.2551068 0.16794841,0.3493327 0.0935426,0.1126137 0.22353217,0.1412797 0.32814537,0.1617472 0.1046133,0.020467 0.1754797,0.021704 0.1932698,0.021704 l 0.00568,-0.2635498 c -0.023423,0 -0.06784,-0.00182 -0.1483113,-0.01757 C 1.2553637,2.6171703 1.1930363,2.5991749 1.1601359,2.5605672 1.1146813,2.5072277 1.0936514,2.4375953 1.0557495,2.3311239 1.4106929,2.1854407 1.5875,1.736869 1.5875,1.21698 1.5875,0.52906737 1.3229162,0.05270996 0.79375,0.05270996 Z m 0,0.26458333 c 0.3704163,0 0.5291667,0.34406225 0.5291667,0.89968671 0,0.4086933 -0.1048486,0.7474887 -0.34313154,0.8598958 C 0.94434955,1.9337835 0.9239746,1.8205607 0.92397461,1.8205607 l -0.25993246,0.046509 c 0,0 0.0188228,0.1053175 0.0516764,0.2428792 C 0.40090901,2.0574953 0.26442527,1.6828508 0.26458333,1.21698 0.26477185,0.66135554 0.4233337,0.31729329 0.79375,0.31729329 Z"
       sodipodi:nodetypes="sscsscccscssssccccss" />
  </g>
  <g
     inkscape:groupmode="layer"
     id="g44"
     inkscape:label="GlyphLayer-R"
     style="display:none">
    <path
       id="path44"
       style="-inkscape-stroke:none;color:#000000;display:inline;fill:#000000;stroke-width:0.99999938599"
       d="M 0.105937 0.0527099 L 0.105937 2.38125 L 0.37052 2.38125 L 0.37052 1.27021 L 0.685229 1.27021 L 1.19164 2.38125 L 1.48166 2.38125 L 0.967382 1.25677 C 1.28804 1.20483 1.48156 1.00088 1.48156 0.661458 C 1.48156 0.264583 1.21708 0.0527099 0.793749 0.0527099 Z M 0.37052 0.317293 L 0.793749 0.317293 C 1.07593 0.317293 1.21698 0.446596 1.21698 0.661458 C 1.21698 0.874169 1.0705 1.00562 0.793749 1.00562 L 0.37052 1.00562 Z" />
  </g>
  <g
     inkscape:groupmode="layer"
     id="layer13"
     inkscape:label="GlyphLayer-S"
     style="display:none">
    <path
       style="color:#000000;fill:#000000;-inkscape-stroke:none"
       d="m 0.79296875,0.05273437 c -0.15341341,0 -0.31447432,0.03776725 -0.44921875,0.13085938 -0.13474443,0.0930921 -0.23828125,0.25359978 -0.23828125,0.45117187 0,0.17859406 0.10144541,0.32178269 0.22265625,0.42187498 0.12121084,0.1000923 0.26567908,0.1728208 0.40429687,0.2441406 0.1386178,0.07132 0.27046663,0.1408824 0.35742183,0.2148438 0.086955,0.073961 0.1269532,0.1375709 0.1269532,0.2304687 0,0.076897 -0.02629,0.1734932 -0.087891,0.2441407 -0.061601,0.070647 -0.15735868,0.1269531 -0.33593745,0.1269531 -0.26365289,0 -0.46484345,-0.2332033 -0.48010416,-0.2519531 L 0.10583333,2.03125 c 0.0154777,0.015478 0.26804228,0.3496094 0.68713542,0.3496094 0.24002665,0 0.42359625,-0.088853 0.53515625,-0.2167969 0.11156,-0.1279436 0.1542969,-0.2838142 0.1542969,-0.4179688 0,-0.1820204 -0.099299,-0.3283783 -0.2207032,-0.4316406 C 1.1403149,1.2111909 0.99271005,1.1360697 0.85351563,1.0644531 0.7143212,0.99283656 0.58324207,0.92548012 0.49609375,0.85351563 c -0.0871483,-0.0719645 -0.125,-0.13275932 -0.125,-0.21875001 0,-0.11379132 0.0449397,-0.17845924 0.12304688,-0.23242187 0.0781072,-0.0539626 0.19239907,-0.0839844 0.29882812,-0.0839844 0.27459835,0 0.46032895,0.2699254 0.46799485,0.28320312 L 1.4816667,0.45703125 C 1.4690436,0.43516742 1.2365292,0.05273438 0.79296875,0.05273437 Z"
       id="path46"
       sodipodi:nodetypes="sssssssssccsssssssssccs" />
  </g>
  <g
     inkscape:groupmode="layer"
     id="g47"
     inkscape:label="GlyphLayer-T"
     style="display:none">
    <path
       id="path47"
       style="-inkscape-stroke:none;color:#000000;display:inline;fill:#000000;stroke-width:0.99999938599"
       d="M 0.0529166 0.0529149 L 0.0529166 0.3175 L 0.661458 0.3175 L 0.661458 2.38125 L 0.926041 2.38125 L 0.926041 0.3175 L 1.53458 0.3175 L 1.53458 0.0529166 Z" />
  </g>
  <g
     inkscape:groupmode="layer"
     id="layer19"
     inkscape:label="GlyphLayer-U"
     style="display:none">
    <path
       style="color:#000000;fill:#000000;-inkscape-stroke:none"
       d="m 0.05273437,0.05273437 1.823e-4,1.58768233 c 5.311e-5,0.4626758 0.34044522,0.7404427 0.74005208,0.7404427 0.41035355,0 0.74145525,-0.2985021 0.74161455,-0.7404427 L 1.5351562,0.05273437 H 1.2695312 L 1.27,1.6404167 C 1.2700906,1.9470933 1.0583333,2.1171875 0.79296875,2.1171875 0.52916667,2.1171875 0.31730693,1.99713 0.3175,1.6404167 l 8.5938e-4,-1.58768233 z"
       id="path17" />
  </g>
  <g
     inkscape:groupmode="layer"
     id="layer20"
     inkscape:label="GlyphLayer-V"
     style="display:none">
    <path
       id="path23"
       style="color:#000000;display:inline;fill:#000000;-inkscape-stroke:none"
       d="M 0.05270996,0.05270996 0.59272868,2.38125 H 0.99477132 L 1.53479,0.05270996 H 1.2609049 L 0.8154541,1.984375 H 0.77256266 L 0.32711182,0.05270996 Z" />
  </g>
  <g
     inkscape:groupmode="layer"
     id="g30"
     inkscape:label="GlyphLayer-W"
     style="display:none">
    <path
       id="path30"
       style="color:#000000;display:inline;fill:#000000;stroke-width:1;-inkscape-stroke:none"
       d="M 0.61220242,2.38125 0.79375,1.0579974 0.9752976,2.38125 H 1.3757899 L 1.53479,0.05270996 H 1.2702067 L 1.1347982,1.8520833 0.9528532,0.74064006 H 0.6346468 L 0.45270185,1.8520833 0.31729329,0.05270996 H 0.05270996 L 0.21171007,2.38125 Z"
       sodipodi:nodetypes="cccccccccccccc" />
  </g>
  <g
     inkscape:groupmode="layer"
     id="layer21"
     inkscape:label="GlyphLayer-X"
     style="display:none">
    <path
       id="path32"
       style="color:#000000;fill:#000000;-inkscape-stroke:none"
       d="M 0.34781763,0.0529167 H 0.05276153 L 0.64647217,1.21698 0.05236084,2.38125 H 0.34768916 L 0.79375,1.5120524 1.2403313,2.38125 H 1.5351479 L 0.9415446,1.21698 1.5347021,0.0529167 H 1.2402479 L 0.79375,0.92190755 Z" />
  </g>
  <g
     inkscape:groupmode="layer"
     id="g36"
     inkscape:label="GlyphLayer-Y"
     style="display:none">
    <path
       id="path36"
       style="color:#000000;fill:#000000;-inkscape-stroke:none"
       d="m 0.34781763,0.0529167 h -0.2950561 l 0.6086968,1.193446 V 2.38125 H 0.92604167 V 1.2474043 L 1.5347021,0.0529167 H 1.2402479 L 0.79375,0.92190755 Z" />
  </g>
  <g
     inkscape:groupmode="layer"
     id="layer22"
     inkscape:label="GlyphLayer-Z"
     style="display:none">
    <path
       id="path37"
       style="color:#000000;fill:#000000;-inkscape-stroke:none"
       d="M 0.05270996,0.05270996 V 0.31832682 H 1.2185303 L 0.05291667,2.1166667 0.05270996,2.3807332 H 1.5353068 V 2.1171834 H 0.36328532 L 1.53479,0.3175 V 0.05270996 Z" />
  </g>
  <g
     inkscape:groupmode="layer"
     id="g8"
     inkscape:label="GlyphLayer-a"
     style="display:none">
    <path
       id="path8"
       style="color:#000000;fill:#000000;-inkscape-stroke:none"
       d="m 0.3175,1.85208 c 0,-0.18382 0.133314,-0.26458 0.463021,-0.26458 0.312989,0 0.463019,0.07427 0.463019,0.26458 0,0.22812 -0.14465,0.26459 -0.463019,0.26459 C 0.448822,2.11667 0.3175,2.04931 0.3175,1.85208 Z M 1.53432,1.37583 c 0,-0.3175 -0.3253,-0.58208 -0.74057,-0.58208 -0.264583,0 -0.529167,0 -0.7246938,0.30639 L 0.3175,1.19063 c 0.075303,-0.1323 0.114369,-0.1323 0.47625,-0.1323 0.23888,0 0.47625,0.12134 0.47625,0.3175 V 1.47849 C 1.14059,1.36086 0.975828,1.32292 0.780521,1.32292 c -0.423334,0 -0.7276043,0.13038 -0.7276043,0.5027 0,0.43259 0.3042703,0.55563 0.7276043,0.55563 C 0.978636,2.38125 1.14,2.34297 1.27,2.2225 v 0.15875 h 0.26458 c 0,0 -2.6e-4,-0.84687 -2.6e-4,-1.00542 z" />
  </g>
  <g
     inkscape:groupmode="layer"
     id="g9"
     inkscape:label="GlyphLayer-b"
     style="display:none">
    <path
       id="path9"
       style="color:#000000;fill:#000000;-inkscape-stroke:none"
       d="M 0.370417 1.32292 C 0.370416 1.20953 0.375567 1.15878 0.396875 1.12448 C 0.432096 1.06778 0.54881 1.05823 0.740833 1.05823 C 1.08816 1.05823 1.21708 1.37261 1.21708 1.5875 C 1.21708 1.81854 1.08232 2.11667 0.740833 2.11667 C 0.553971 2.11667 0.423255 2.11667 0.396875 2.05052 C 0.381972 2.01315 0.370419 1.95179 0.370419 1.85208 Z M 1.48167 1.5875 C 1.48167 1.09623 1.21708 0.793649 0.79375 0.793649 C 0.663808 0.793649 0.463767 0.859149 0.370417 0.9525 L 0.370417 0.0529165 L 0.105833 0.0529165 L 0.105833 1.5875 L 0.105833 2.38125 L 0.370417 2.38125 L 0.370417 2.2225 C 0.428236 2.25588 0.465502 2.30985 0.507669 2.32753 C 0.592005 2.36288 0.687917 2.38125 0.79375 2.38125 C 1.21708 2.38125 1.48167 2.08159 1.48167 1.5875 Z" />
  </g>
  <g
     inkscape:groupmode="layer"
     id="g10"
     inkscape:label="GlyphLayer-c"
     style="display:none">
    <path
       id="path10"
       style="color:#000000;fill:#000000;-inkscape-stroke:none"
       d="M 0.899687 0.79375 C 0.476353 0.79375 0.105833 1.09331 0.105833 1.5875 C 0.105833 2.08743 0.476354 2.38125 0.899687 2.38125 C 1.11135 2.38125 1.34956 2.30657 1.48178 2.16989 C 1.48187 2.1698 1.4817 2.16947 1.48178 2.16938 L 1.29317 1.98076 C 1.21675 2.0632 1.0527 2.11667 0.899687 2.11667 C 0.552358 2.11667 0.370416 1.85208 0.370416 1.5875 C 0.370416 1.32292 0.569897 1.05833 0.899687 1.05833 C 1.05453 1.05833 1.21882 1.11095 1.29472 1.19269 L 1.48127 1.00614 C 1.34906 0.869255 1.11122 0.79375 0.899687 0.79375 Z" />
  </g>
  <g
     inkscape:groupmode="layer"
     id="g11"
     inkscape:label="GlyphLayer-d"
     style="display:none">
    <path
       id="path11"
       style="color:#000000;fill:#000000;-inkscape-stroke:none"
       d="m 1.21708,1.85208 c 0,0.09971 -0.01155,0.16107 -0.02645,0.19844 -0.02639,0.06615 -0.1571,0.06615 -0.343963,0.06615 -0.341482,0 -0.476252,-0.29813 -0.476252,-0.52917 0,-0.21489 0.128923,-0.52927 0.476252,-0.52927 0.192023,0 0.308733,0.00955 0.343963,0.06625 0.0213,0.0343 0.02645,0.08505 0.02645,0.19844 z M 0.79375,2.38125 c 0.105833,0 0.201744,-0.01837 0.28608,-0.05372 C 1.122,2.30985 1.15926,2.25588 1.21708,2.2225 V 2.38125 H 1.48167 V 1.5875 0.0529165 H 1.21708 V 0.9525 C 1.12373,0.859149 0.923692,0.793649 0.79375,0.793649 c -0.423333,0 -0.687917,0.302581 -0.687917,0.793851 0,0.49409 0.264583,0.79375 0.687917,0.79375 z"
       sodipodi:nodetypes="scssscsssccccccccsss" />
  </g>
  <g
     inkscape:groupmode="layer"
     id="g12"
     inkscape:label="GlyphLayer-e"
     style="display:none">
    <path
       id="path16"
       style="color:#000000;display:inline;fill:#000000;-inkscape-stroke:none"
       d="m 0.79375,0.79375 c -0.42333256,0 -0.74104004,0.2995626 -0.74104004,0.79375 0,0.4999331 0.38385331,0.79375 0.80718587,0.79375 0.29338297,0 0.36016487,0.020451 0.61862807,-0.097369 L 1.3990703,2.040266 C 1.2170691,2.1340236 1.0106431,2.116667 0.85989583,2.116667 0.57144119,2.116667 0.3676106,1.9342473 0.32917837,1.7208255 H 1.526005 c 0.00536,-0.042662 0.00827,-0.087186 0.00827,-0.1333252 0,-0.4912641 -0.3171908,-0.79375 -0.7405233,-0.79375 z m 0,0.2645833 c 0.2889144,0 0.4264565,0.1829923 0.4645711,0.396875 H 0.33072917 C 0.37258841,1.2413478 0.51944708,1.0583333 0.79375,1.0583333 Z" />
  </g>
  <g
     inkscape:groupmode="layer"
     id="g18"
     inkscape:label="GlyphLayer-f"
     style="display:none">
    <path
       id="path18"
       style="color:#000000;fill:#000000;-inkscape-stroke:none"
       d="M 1.16434 0.0527098 C 0.741008 0.0527098 0.529237 0.352272 0.529237 0.84646 L 0.529237 1.05833 L 0.052652 1.05833 L 0.052652 1.32292 L 0.529237 1.32292 L 0.529237 2.38125 L 0.79382 2.38125 L 0.79382 1.32292 L 1.42875 1.32292 L 1.42875 1.05833 L 0.79382 1.05833 L 0.79382 0.84646 C 0.79382 0.58188 0.834551 0.317293 1.16434 0.317293 C 1.2418 0.317293 1.30289 0.331114 1.35141 0.3545 L 1.49662 0.136426 C 1.40618 0.0818211 1.29539 0.0527098 1.16434 0.0527098 Z" />
  </g>
  <g
     inkscape:groupmode="layer"
     id="g20"
     inkscape:label="GlyphLayer-g"
     style="display:none">
    <path
       id="path20"
       style="color:#000000;fill:#000000;-inkscape-stroke:none"
       d="m 1.21708,1.85208 c 0,0.09971 -0.01155,0.16107 -0.02645,0.19844 -0.02639,0.06615 -0.1571,0.06615 -0.343963,0.06615 -0.341482,0 -0.476252,-0.29813 -0.476252,-0.52917 0,-0.21489 0.128923,-0.52927 0.476252,-0.52927 0.192023,0 0.308733,0.00955 0.343963,0.06625 0.0213,0.0343 0.02645,0.08505 0.02645,0.19844 z M 0.79375,2.38125 c 0.105833,0 0.201744,-0.01837 0.28608,-0.05372 C 1.122,2.30985 1.15926,2.25588 1.21708,2.2225 c 0,0.61117 -0.217574,0.635 -0.952497,0.635 v 0.26458 c 0.793747,0 1.217087,2.1e-4 1.217087,-0.89958 V 1.5875 0.767292 H 1.21708 V 0.9525 C 1.12373,0.859149 0.923692,0.793649 0.79375,0.793649 c -0.423333,0 -0.687917,0.302581 -0.687917,0.793851 0,0.49409 0.264583,0.79375 0.687917,0.79375 z"
       sodipodi:nodetypes="scssscsssccccsccccsss" />
  </g>
  <g
     inkscape:groupmode="layer"
     id="g21"
     inkscape:label="GlyphLayer-h"
     style="display:none">
    <path
       id="path21"
       style="color:#000000;fill:#000000;-inkscape-stroke:none"
       d="M 0.13224 0.0529165 L 0.132343 2.38125 L 0.396927 2.38125 L 0.396927 1.5875 C 0.396927 1.19986 0.56844 1.05833 0.79375 1.05833 C 1.01596 1.05833 1.19057 1.20067 1.19057 1.5875 C 1.19057 1.80618 1.19068 2.25549 1.19068 2.38125 L 1.45526 2.38125 C 1.45526 2.24079 1.45516 1.75126 1.45516 1.5875 C 1.45516 1.09624 1.16739 0.793749 0.79375 0.79375 C 0.628992 0.79375 0.490277 0.859046 0.396927 0.952396 L 0.396823 0.0529165 Z" />
  </g>
  <g
     inkscape:groupmode="layer"
     id="layer4"
     inkscape:label="GlyphLayer-i"
     style="display:none">
    <path
       id="path22"
       style="color:#000000;fill:#000000;-inkscape-stroke:none"
       d="m 0.63552917,0.15769167 v 0.371475 h 0.31644166 v -0.371475 z M 0.26458333,0.79375047 V 1.0583338 h 0.396875 v 1.0583329 h -0.555625 V 2.3812499 L 1.4816667,2.3807332 V 2.1166667 H 0.92604167 V 0.79271647 Z" />
  </g>
  <g
     inkscape:groupmode="layer"
     id="g24"
     inkscape:label="GlyphLayer-j"
     style="display:none">
    <path
       id="path24"
       style="color:#000000;fill:#000000;-inkscape-stroke:none"
       d="m 0.76782084,0.15769167 v 0.371475 H 1.0842625 v -0.371475 z M 0.26458333,0.79375047 V 1.0583338 H 0.79375 V 2.2489583 C 0.79375,2.7363683 0.60928035,2.8575 0.10583333,2.8575 V 3.1220833 C 0.79375,3.1253905 1.0583333,2.8482833 1.0583333,2.2489583 V 0.79271647 Z" />
  </g>
  <g
     inkscape:groupmode="layer"
     id="layer6"
     inkscape:label="GlyphLayer-k"
     style="display:none">
    <path
       id="path21-6"
       style="color:#000000;display:inline;fill:#000000;-inkscape-stroke:none"
       d="M 0.10593669,0.05270996 V 2.38125 h 0.26458333 c 8.26e-6,-0.2364846 3.56e-6,-0.4730328 0,-0.7095174 L 0.42271322,1.6309082 1.1193115,2.38125 H 1.4815633 L 0.631486,1.4655436 1.4815633,0.79375 H 1.047998 L 0.37052002,1.3337687 c -1.617e-5,-0.42698123 5.067e-5,-0.85407749 0,-1.28105874 z" />
  </g>
  <g
     inkscape:groupmode="layer"
     id="g27"
     inkscape:label="GlyphLayer-l"
     style="display:none">
    <path
       id="path27"
       style="color:#000000;fill:#000000;-inkscape-stroke:none"
       d="M 0.26458333,0.05291666 V 0.3175 h 0.396875 v 1.7991667 h -0.555625 V 2.3812499 L 1.4816667,2.3807332 V 2.1166667 H 0.92604167 V 0.05292883 Z" />
  </g>
  <g
     inkscape:groupmode="layer"
     id="layer5"
     inkscape:label="GlyphLayer-m"
     style="display:none">
    <path
       id="path38"
       style="color:#000000;fill:#000000;-inkscape-stroke:none"
       d="M 0.05291667,0.76656085 V 2.38125 H 0.3175 V 1.27 c 0,-0.1408772 0.0860208,-0.2116667 0.17197917,-0.2116667 0.0878372,0 0.17197916,0.052717 0.17197916,0.2116667 v 1.11125 l 0.26458334,3e-6 c 0.002067,-0.1432395 -0.002067,-0.9969908 0,-1.111253 0,-0.121263 0.0666209,-0.2116663 0.17197913,-0.2116663 C 1.2048674,1.0583337 1.27,1.146082 1.27,1.27 V 2.38125 H 1.5345833 V 1.27 c 0,-0.3175 -0.2116666,-0.4762499 -0.4365625,-0.4762499 -0.14510739,0 -0.25442356,0.072412 -0.3042708,0.1587499 C 0.74025269,0.85983994 0.66145833,0.79375 0.48947917,0.79375 0.41323727,0.79375 0.35086608,0.8397589 0.3175,0.873125 V 0.76729167 Z" />
  </g>
  <g
     inkscape:groupmode="layer"
     id="layer5-1"
     inkscape:label="GlyphLayer-n"
     style="display:none">
    <path
       id="path38-9"
       style="color:#000000;fill:#000000;-inkscape-stroke:none"
       d="M 0.105837 0.766662 L 0.105837 2.38135 L 0.37042 2.38135 L 0.37042 1.45526 C 0.37042 1.22013 0.52917 1.05833 0.793753 1.05833 C 1.05834 1.05833 1.21709 1.24808 1.21709 1.45516 L 1.21709 2.38125 L 1.48167 2.38125 C 1.48374 2.23801 1.4796 1.56942 1.48167 1.45516 C 1.48167 1.05833 1.21709 0.79375 0.793753 0.79375 C 0.685355 0.79375 0.439172 0.836895 0.37042 0.955976 L 0.37042 0.768123 Z" />
  </g>
  <g
     inkscape:groupmode="layer"
     id="layer5-1-5"
     inkscape:label="GlyphLayer-o"
     style="display:none">
    <path
       id="path38-9-5"
       style="color:#000000;fill:#000000;-inkscape-stroke:none"
       d="M 0.3175 1.5875 C 0.3175 1.32292 0.46396 1.05823 0.79375 1.05823 C 1.14108 1.05823 1.26974 1.32292 1.26974 1.5875 C 1.26974 1.85208 1.13523 2.11667 0.79375 2.11667 C 0.446421 2.11667 0.3175 1.85208 0.3175 1.5875 Z M 1.53432 1.5875 C 1.53432 1.09623 1.21708 0.793649 0.79375 0.793649 C 0.370416 0.793649 0.0529166 1.09331 0.0529166 1.5875 C 0.0529166 2.08743 0.370416 2.38125 0.79375 2.38125 C 1.21708 2.38125 1.53432 2.08159 1.53432 1.5875 Z" />
  </g>
  <g
     inkscape:groupmode="layer"
     id="g3"
     inkscape:label="GlyphLayer-p"
     style="display:none">
    <path
       id="path3"
       style="color:#000000;fill:#000000;-inkscape-stroke:none"
       d="M 0.370417 1.32292 C 0.370416 1.20953 0.375567 1.15878 0.396875 1.12448 C 0.432096 1.06778 0.54881 1.05823 0.740833 1.05823 C 1.08816 1.05823 1.21708 1.37261 1.21708 1.5875 C 1.21708 1.81854 1.08232 2.11667 0.740833 2.11667 C 0.553971 2.11667 0.423255 2.11667 0.396875 2.05052 C 0.381972 2.01315 0.370419 1.95179 0.370419 1.85208 Z M 1.48167 1.5875 C 1.48167 1.09623 1.21708 0.793649 0.79375 0.793649 C 0.663808 0.793649 0.463767 0.859149 0.370417 0.9525 L 0.370417 0.767292 L 0.105833 0.767292 L 0.105833 1.5875 L 0.105833 3.12208 L 0.370417 3.12208 L 0.370417 2.2225 C 0.428236 2.25588 0.465502 2.30985 0.507669 2.32753 C 0.592005 2.36288 0.687917 2.38125 0.79375 2.38125 C 1.21708 2.38125 1.48167 2.08159 1.48167 1.5875 Z" />
  </g>
  <g
     inkscape:groupmode="layer"
     id="g2"
     inkscape:label="GlyphLayer-q"
     style="display:none">
    <path
       id="path2"
       style="color:#000000;fill:#000000;-inkscape-stroke:none"
       d="m 1.21708,1.85208 c 0,0.09971 -0.01155,0.16107 -0.02645,0.19844 -0.02639,0.06615 -0.1571,0.06615 -0.343963,0.06615 -0.341482,0 -0.476252,-0.29813 -0.476252,-0.52917 0,-0.21489 0.128923,-0.52927 0.476252,-0.52927 0.192023,0 0.308733,0.00955 0.343963,0.06625 0.0213,0.0343 0.02645,0.08505 0.02645,0.19844 z M 0.79375,2.38125 c 0.105833,0 0.201744,-0.01837 0.28608,-0.05372 C 1.122,2.30985 1.15926,2.25588 1.21708,2.2225 V 3.12208 H 1.48167 V 1.5875 0.767292 H 1.21708 V 0.9525 C 1.12373,0.859149 0.923692,0.793649 0.79375,0.793649 c -0.423333,0 -0.687917,0.302581 -0.687917,0.793851 0,0.49409 0.264583,0.79375 0.687917,0.79375 z"
       sodipodi:nodetypes="scssscsssccccccccsss" />
  </g>
  <g
     inkscape:groupmode="layer"
     id="g4"
     inkscape:label="GlyphLayer-r"
     style="display:none">
    <path
       id="path4"
       style="color:#000000;fill:#000000;-inkscape-stroke:none"
       d="M 0.05270996,0.76739502 V 1.0319784 H 0.26458333 V 2.1166667 H 0.05270996 V 2.38125 H 0.29093831 0.74104004 V 2.1166667 L 0.52916667,2.1151164 V 1.4552083 c 0,-0.2351297 0.19558219,-0.396875 0.37052002,-0.396875 0.11237091,0 0.22104861,0.04445 0.29145511,0.1369426 L 1.4319539,1.0485148 C 1.3101874,0.85908088 1.0986466,0.79375 0.89968669,0.79375 c -0.13100787,0 -0.2962451,0.0847798 -0.37052002,0.2134237 V 0.76739502 Z" />
  </g>
  <g
     inkscape:groupmode="layer"
     id="layer1"
     inkscape:label="GlyphLayer-s"
     style="display:inline">
    <path
       style="color:#000000;display:inline;fill:#000000;-inkscape-stroke:none"
       d="m 0.85989583,0.74083335 c -0.33072916,0 -0.75415365,0.0529167 -0.75415365,0.51593745 0,0.3985364 0.31456167,0.4192577 0.68800782,0.4630209 0.2645833,0.031006 0.4233116,0.043113 0.4233116,0.1984375 0,0.1341258 -0.1587283,0.2513541 -0.48945743,0.2513541 -0.35623728,0 -0.62167969,-0.052396 -0.62167969,-0.052396 v 0.2640625 c 0,0 0.26544241,0.052917 0.62167969,0.052917 0.33072913,0 0.75461343,-0.052917 0.75461343,-0.5159374 C 1.4822176,1.522201 1.1887355,1.492285 0.79375,1.455078 0.5279922,1.430044 0.37136689,1.414018 0.37136689,1.256771 c 0,-0.137049 0.15779978,-0.2513542 0.48852894,-0.2513542 0.31541037,0 0.62174917,0.052917 0.62174917,0.052917 V 0.79375 c 0,0 -0.3054368,-0.0529167 -0.62174917,-0.0529167 z"
       id="path19"
       sodipodi:nodetypes="sssssccsssssccs" />
  </g>
  <g
     inkscape:groupmode="layer"
     id="layer2"
     inkscape:label="GlyphLayer-t"
     style="display:none">
    <path
       id="path18-7"
       style="color:#000000;display:inline;fill:#000000;-inkscape-stroke:none"
       d="M 0.5292369,0.26458333 V 0.79374992 H 0.0526521 V 1.0583332 h 0.4765848 c 0,0 -7.023e-5,0.6227251 -7.023e-5,0.8578288 0,0.1782078 0.095306,0.465088 0.52916663,0.465088 0.1932698,0 0.3589129,-0.044906 0.47625,-0.079375 L 1.4816667,2.0372917 C 1.4027677,2.0647677 1.1864908,2.1177 1.0583333,2.116667 0.90948398,2.115467 0.79375,2.0711 0.7938203,1.9202966 c -7.03e-5,-0.1596551 0,-0.8619629 0,-0.8619629 h 0.740763 V 0.79374992 H 0.7938203 V 0.26458333 Z" />
  </g>
  <g
     inkscape:groupmode="layer"
     id="layer7"
     inkscape:label="GlyphLayer-u"
     style="display:none">
    <path
       d="m 1.4822643,2.3813508 -1e-7,-1.61468906 H 1.217681 V 1.6927531 c 0,0.2351307 -0.1587501,0.3969261 -0.42333344,0.3969261 -0.2645833,0 -0.4233333,-0.1897442 -0.4233333,-0.3968238 V 0.76676404 l -0.2645834,-3e-6 c -0.00207,0.1432395 0.00207,0.81183216 0,0.92609436 0,0.3968238 0.2645834,0.6614071 0.6879167,0.6614071 0.1083979,0 0.35458154,-0.043145 0.42333334,-0.1622263 v 0.187853 z"
       style="color:#000000;fill:#000000;-inkscape-stroke:none"
       id="path1" />
  </g>
  <g
     inkscape:groupmode="layer"
     id="layer8"
     inkscape:label="GlyphLayer-v"
     style="display:none">
    <path
       id="path28"
       style="color:#000000;fill:#000000;-inkscape-stroke:none"
       d="M 0.33241602,0.79375 H 0.05322673 l 0.54711872,1.5875 h 0.385789 L 1.5337565,0.79375 h -0.279706 l -0.43810618,1.27 h -0.0454222 z" />
  </g>
  <g
     inkscape:groupmode="layer"
     id="layer9"
     inkscape:label="GlyphLayer-w"
     style="display:none">
    <path
       id="path29"
       style="color:#000000;fill:#000000;-inkscape-stroke:none"
       d="m 0.05891113,0.79375 0.2056722,1.5875 h 0.43718262 l 0.0790953,-1.05833 h 0.0318917 l 0.0786655,1.05833 H 1.3286011 L 1.53479,0.79375 H 1.2665894 L 1.0640177,2.1807454 0.93172607,0.79375 H 0.66145833 L 0.52916667,2.1807454 0.32659505,0.79375 Z" />
  </g>
  <g
     inkscape:groupmode="layer"
     id="layer10"
     inkscape:label="GlyphLayer-x"
     style="display:none">
    <path
       id="path31"
       style="color:#000000;fill:#000000;-inkscape-stroke:none"
       d="M 1.1635394,0.79375 0.79323324,1.3497884 0.42280312,0.79375 H 0.10583333 L 0.63458659,1.5880168 0.10583333,2.38125 H 0.42310446 L 0.79323324,1.8262451 1.1638164,2.38125 H 1.4816667 L 0.95239665,1.5880168 1.4816667,0.79375 Z" />
  </g>
  <g
     inkscape:groupmode="layer"
     id="layer11"
     inkscape:label="GlyphLayer-y"
     style="display:none">
    <path
       id="path33"
       style="color:#000000;fill:#000000;-inkscape-stroke:none"
       d="m 0.05322672,0.79375 0.54725342,1.5875 H 0.71365153 L 0.46095378,3.12229 H 0.74000651 L 1.5337565,0.79375 H 1.2547038 L 0.79633382,2.1383708 0.33279622,0.79375 Z" />
  </g>
  <g
     inkscape:groupmode="layer"
     id="layer12"
     inkscape:label="GlyphLayer-z"
     style="display:none">
    <path
       id="path35"
       style="color:#000000;fill:#000000;-inkscape-stroke:none"
       d="M 0.05270996,0.79271647 V 1.0588501 H 1.1518677 L 0.05270996,2.1166667 V 2.3807332 H 1.5353068 V 2.1171834 H 0.43511556 L 1.5342733,1.0588501 1.5353068,0.79271647 Z" />
  </g>
  <g
     inkscape:groupmode="layer"
     id="g40"
     inkscape:label="GlyphLayer-0"
     style="display:none">
    <path
       id="path40"
       style="color:#000000;display:inline;fill:#000000;-inkscape-stroke:none"
       d="m 0.79375,0.05270996 c -0.46193122,0 -0.68833008,0.47635739 -0.68833008,1.16427004 0,0.6349993 0.21402545,1.16427 0.68833008,1.16427 0.480252,0 0.6878133,-0.5292707 0.6878133,-1.16427 0,-0.68791263 -0.2098042,-1.16427004 -0.6878133,-1.16427004 z m 0,0.26458333 c 0.0495007,0 0.0938579,0.008152 0.1333252,0.0237712 L 0.48059082,1.9027262 C 0.39953286,1.7386837 0.3699093,1.4938927 0.37000326,1.21698 0.37019178,0.66135554 0.47887559,0.31729329 0.79375,0.31729329 Z M 1.1001912,0.50384521 C 1.1853923,0.65889373 1.21698,0.90444123 1.21698,1.21698 c 0,0.5027079 -0.092278,0.8996867 -0.42323,0.8996867 -0.0546383,0 -0.10279555,-0.011183 -0.14521077,-0.032039 z" />
  </g>
  <g
     inkscape:groupmode="layer"
     id="layer23"
     inkscape:label="GlyphLayer-1"
     style="display:none">
    <path
       style="color:#000000;fill:#000000;-inkscape-stroke:none"
       d="M 0.79453124,0.05273437 0.265,0.26458333 V 0.52916667 L 0.79453124,0.3175 V 2.1166667 H 0.10583333 V 2.3808594 L 1.4816667,2.38125 V 2.1166667 H 1.0582031 V 0.05273437 Z"
       id="path45" />
  </g>
  <g
     inkscape:groupmode="layer"
     id="layer24"
     inkscape:label="GlyphLayer-2"
     style="display:none">
    <path
       id="path48"
       style="color:#000000;fill:#000000;-inkscape-stroke:none"
       d="m 0.79271647,0.05270996 c -0.45140635,2e-8 -0.73793945,0.39635824 -0.73793945,0.39635824 L 0.2635498,0.60926514 c 0,0 0.24206483,-0.29093832 0.52916667,-0.29093832 0.15588019,-10e-9 0.25906823,0.0430563 0.32452803,0.10541992 0.06546,0.0623635 0.099735,0.14731485 0.099735,0.25373129 0,0.56794627 -0.57408958,1.10873087 -1.11104331,1.52755537 V 2.3807332 H 1.4825968 V 2.1171834 H 0.58394368 C 1.1015893,1.6612819 1.4825968,1.1902518 1.4825968,0.67747803 c 0,-0.16783926 -0.06277,-0.32946888 -0.1839681,-0.44493408 C 1.1774312,0.11707873 1.0014548,0.05270996 0.79271647,0.05270996 Z" />
  </g>
  <g
     inkscape:groupmode="layer"
     id="layer25"
     inkscape:label="GlyphLayer-3"
     style="display:none">
    <path
       id="path51"
       style="color:#000000;display:inline;fill:#000000;-inkscape-stroke:none"
       d="m 0.79271647,0.04082438 c -0.44155945,0 -0.67105475,0.31603766 -0.68729655,0.33227946 l 0.2129069,0.15812988 c 0.023737,-0.023737 0.16354179,-0.22479248 0.47438965,-0.22479248 0.36677533,0 0.42426333,0.25569014 0.42426333,0.41599528 0,0.17481723 -0.1340263,0.24243932 -0.30695843,0.31264238 -0.12510188,0.032284 -0.25333538,0.024078 -0.3808553,0.023772 v 0.2635498 c 0.23324584,0.021704 0.19609366,-0.00564 0.37310384,0.046511 0.20633579,0.058443 0.31470989,0.1896495 0.31470949,0.3379639 -1e-7,0.051368 -0.014356,0.4180623 -0.42426343,0.4180623 -0.24396886,0 -0.47438915,-0.052041 -0.49764404,-0.058394 l -0.0604609,0.257862 c 0.0299723,0.00803 0.27290874,0.066146 0.55810547,0.066146 0.4548877,0 0.6898803,-0.3470458 0.6898803,-0.6836792 0,-0.2824333 -0.1817846,-0.433852 -0.2878377,-0.4981609 0.1076885,-0.059704 0.2878377,-0.2020547 0.2878377,-0.48627548 0,-0.38471174 -0.2511658,-0.68161192 -0.68988033,-0.68161194 z"
       sodipodi:nodetypes="sccssccccssccsscss" />
  </g>
  <g
     inkscape:groupmode="layer"
     id="layer26"
     inkscape:label="GlyphLayer-4"
     style="display:none">
    <path
       style="color:#000000;fill:#000000;-inkscape-stroke:none"
       d="M 0.92604167,0.0529167 0.10583333,1.4552083 V 1.7207031 H 0.92578125 V 2.3808594 H 1.1914062 V 1.7207031 H 1.4824219 V 1.4550781 H 1.1914062 V 0.0529167 Z M 0.92578125,0.47101956 V 1.4550781 H 0.35695573 Z"
       id="path52" />
  </g>
  <g
     inkscape:groupmode="layer"
     id="layer27"
     inkscape:label="GlyphLayer-5"
     style="display:none">
    <path
       style="color:#000000;fill:#000000;-inkscape-stroke:none"
       d="M 0.10546875,0.05273437 V 1.2167969 C 0.49861729,1.1430812 1.2167969,1.0112377 1.2167969,1.6542968 c 0,0.403831 -0.26358556,0.5082164 -0.67382815,0.4628906 l -0.421875,-0.046875 -0.02929688,0.2636719 0.421875,0.046875 C 1.3952362,2.4782594 1.4824219,1.8906004 1.4824219,1.6542969 1.4547116,0.98641112 0.93039766,0.8970225 0.37109375,0.94335938 v -0.625 H 1.4824219 V 0.05273437 Z"
       id="path53" />
  </g>
  <g
     inkscape:groupmode="layer"
     id="layer28"
     inkscape:label="GlyphLayer-6"
     style="display:none">
    <path
       style="color:#000000;display:inline;fill:#000000;-inkscape-stroke:none"
       d="m 0.10546875,1.3229167 c 0,0 0,0 0,0.396875 0,0.396875 0.32336835,0.6610677 0.68828125,0.6610677 0.3649129,0 0.6886719,-0.1815097 0.6886719,-0.6610677 0,-0.5291945 -0.3270657,-0.7096719 -0.6886719,-0.7096719 -0.20904138,0 -0.36421443,0.094689 -0.42265625,0.3127969 C 0.35159783,0.75358157 0.52916667,0.31658858 1.3229167,0.31658858 L 1.2939779,0.0529167 c -0.85951668,0 -1.18850915,0.47625 -1.18850915,1.27 z M 0.79375,1.2652968 c 0.2645833,0 0.4233333,0.1403025 0.4233333,0.4544949 0,0.299109 -0.24331277,0.4002987 -0.4233333,0.3973958 -0.18002053,-0.0029 -0.396875,-0.1047949 -0.396875,-0.3973958 0,-0.2896776 0.1322917,-0.4544949 0.396875,-0.4544949 z"
       id="path54" />
  </g>
  <g
     inkscape:groupmode="layer"
     id="layer29"
     inkscape:label="GlyphLayer-7"
     style="display:none">
    <path
       style="color:#000000;fill:#000000;-inkscape-stroke:none"
       d="M 0.10546875,0.05273437 V 0.5291667 H 0.37041667 V 0.31835938 H 1.1582031 L 0.38736501,2.38125 H 0.66961128 L 1.5345833,0.05273437 Z"
       id="path55" />
  </g>
  <g
     inkscape:groupmode="layer"
     id="layer30"
     inkscape:label="GlyphLayer-8"
     style="display:none">
    <path
       id="path57"
       style="color:#000000;display:inline;fill:#000000;-inkscape-stroke:none"
       d="m 0.79271647,0.05270996 c -0.37532177,2e-8 -0.63458659,0.25195371 -0.63458659,0.68729655 0,0.18203097 0.0789176,0.33896819 0.1984375,0.43769939 -0.0974497,0.067211 -0.25114742,0.2238327 -0.25114742,0.5431197 0,0.3732498 0.25558837,0.659908 0.68729655,0.659908 0.44664459,0 0.68988029,-0.2939959 0.68988029,-0.659908 0,-0.1449552 -0.034415,-0.3947867 -0.2490805,-0.5431188 0.1184131,-0.098559 0.1963705,-0.25558863 0.1963705,-0.43769939 0,-0.45160418 -0.2713677,-0.68729745 -0.63717033,-0.68729745 z m 0,0.26561686 c 0.26561683,0 0.37155353,0.13483511 0.37155353,0.42167969 0,0.30588369 -0.31770708,0.31884359 -0.37155353,0.31884359 -0.10055447,0 -0.36896976,-0.037872 -0.36896973,-0.31884359 0.009294,-0.28220364 0.10847404,-0.42167969 0.36896973,-0.42167969 z m 0,1.00407308 c 0.27161473,0 0.42426353,0.1080905 0.42426353,0.3984253 0,0.2881349 -0.1907868,0.3963582 -0.42426353,0.3963582 -0.23374401,0 -0.42167969,-0.120627 -0.42167969,-0.3963582 0,-0.2455301 0.115038,-0.3984253 0.42167969,-0.3984253 z" />
  </g>
  <g
     inkscape:groupmode="layer"
     id="g58"
     inkscape:label="GlyphLayer-9"
     style="display:none">
    <path
       style="color:#000000;display:inline;fill:#000000;-inkscape-stroke:none"
       d="m 1.4824219,1.1108594 c 0,0 0,0 0,-0.396875 0,-0.396875 -0.3233684,-0.6610677 -0.68828125,-0.6610677 -0.3649129,0 -0.6886719,0.1815097 -0.6886719,0.6610677 0,0.5291945 0.3270657,0.7096719 0.6886719,0.7096719 0.20904135,0 0.36421445,-0.094689 0.42265625,-0.3127969 0.019496,0.5693351 -0.1580729,1.0063281 -0.95182295,1.0063281 l 0.0289388,0.2636719 c 0.85951665,0 1.18850915,-0.47625 1.18850915,-1.27 z m -0.68828125,0.05762 c -0.2645833,0 -0.4233333,-0.1403025 -0.4233333,-0.4544949 0,-0.299109 0.24331277,-0.4002987 0.4233333,-0.3973958 0.18002053,0.0029 0.39687495,0.1047949 0.39687495,0.3973958 0,0.2896776 -0.1322917,0.4544949 -0.39687495,0.4544949 z"
       id="path58" />
  </g>
  <g
     inkscape:groupmode="layer"
     id="layer31"
     inkscape:label="GlyphLayer-."
     style="display:none">
    <path
       id="path34"
       style="display:inline;stroke-width:0.264583"
       d="m 0.79374999,1.9711457 c -0.12420657,0 -0.22489588,0.1006893 -0.22489584,0.2248959 2e-8,0.1242065 0.10068931,0.2248958 0.22489584,0.2248958 0.12420652,0 0.22489581,-0.1006893 0.22489581,-0.2248958 0,-0.1242066 -0.10068925,-0.2248959 -0.22489581,-0.2248959 z"
       sodipodi:nodetypes="sssss" />
  </g>
  <g
     inkscape:groupmode="layer"
     id="g43"
     inkscape:label="GlyphLayer-!"
     style="display:none">
    <path
       id="path43"
       style="display:inline;stroke-width:0.264583"
       d="m 0.60874837,0.13229167 0.05271,1.50812503 h 0.26458334 l 0.05271,-1.50812503 z M 0.79375,1.9709391 c -0.12420645,0 -0.22479252,0.1011028 -0.22479248,0.2253093 2e-8,0.1242063 0.10058607,0.2247925 0.22479248,0.2247925 0.1242064,0 0.2247925,-0.1005862 0.2247925,-0.2247925 0,-0.1242065 -0.10058606,-0.2253093 -0.2247925,-0.2253093 z"
       sodipodi:nodetypes="cccccsssss" />
  </g>
  <g
     inkscape:groupmode="layer"
     id="layer32"
     inkscape:label="GlyphLayer-@"
     style="display:none">
    <path
       id="path50"
       style="color:#000000;fill:#000000;-inkscape-stroke:none"
       d="m 0.79270407,0.10556875 c -0.42577294,0 -0.72239876,0.30794437 -0.73999411,1.34963955 C 0.03993473,2.2115385 0.26479104,2.872667 1.2702067,2.6985433 V 2.43396 C 0.46004293,2.5946394 0.31729329,2.139045 0.31729329,1.4552083 c 0,-0.81448051 0.14947262,-1.08505622 0.47644431,-1.08505622 0.2645833,0 0.474402,0.14724739 0.474402,0.47734141 0,0 -0.00693,-0.13311849 -0.2362646,-0.13311849 -0.27694239,0 -0.47625,0.25721244 -0.47625,0.6746875 0,0.4630208 0.19678385,0.6746875 0.47625,0.6746875 0.1885817,0 0.2388485,-0.1269173 0.2388485,-0.1269173 V 2.1171834 H 1.5342733 V 1.0583333 c 0,-0.6139153 -0.1468878,-0.95276455 -0.74156923,-0.95276455 z M 1.27,1.3890625 c 0,0.2592863 -0.068612,0.4630208 -0.238125,0.4630208 -0.16814124,0 -0.26458334,-0.1984375 -0.26458334,-0.4630208 0,-0.2645834 0.1025181,-0.46302083 0.26458334,-0.46302083 0.1923949,0 0.238125,0.22182353 0.238125,0.46302083 z"
       sodipodi:nodetypes="ssccsscssscccsssssss" />
  </g>
  <g
     inkscape:groupmode="layer"
     id="layer33"
     inkscape:label="GlyphLayer-#"
     style="display:none">
    <path
       id="path59"
       style="color:#000000;display:inline;fill:#000000;-inkscape-stroke:none"
       d="M 0.39170736,0.13229167 0.35708415,0.68729655 H 0.05270996 V 0.95291341 H 0.34054769 L 0.30747477,1.4825968 H 0.05270996 V 1.7461466 H 0.29093831 L 0.25114746,2.38125 h 0.2651001 L 0.55603841,1.7461466 H 0.97823486 L 0.93844401,2.38125 H 1.2045776 L 1.2438517,1.7461466 H 1.5353068 V 1.4825968 H 1.2598714 L 1.2929443,0.95291341 H 1.5353068 V 0.68729655 H 1.3094808 L 1.3435872,0.13229167 H 1.0790039 L 1.0443807,0.68729655 H 0.62166748 L 0.65629069,0.13229167 Z M 0.60513102,0.95291341 H 1.0278442 L 0.99477132,1.4825968 H 0.57205811 Z" />
  </g>
  <g
     inkscape:groupmode="layer"
     id="g63"
     inkscape:label="GlyphLayer-$"
     style="display:none">
    <path
       id="path63"
       style="color:#000000;fill:#000000;-inkscape-stroke:none"
       d="M 0.66145833,-0.26871745 V 0.06252848 C 0.55038136,0.07888139 0.44019718,0.1167477 0.34364827,0.18345133 0.20890398,0.27654334 0.10541992,0.4370147 0.10541992,0.63458659 c 0,0.17859388 0.10151471,0.32210426 0.22272543,0.42219641 0.10067196,0.083132 0.21723104,0.1469722 0.33331298,0.2072225 V 2.0970296 C 0.46100001,2.0374692 0.32814535,1.8789546 0.31264242,1.8650024 c 0,0 0,0 -0.20670573,0.1663982 0.0161314,0.016131 0.21276617,0.2774101 0.55552164,0.3379638 V 2.9104167 H 0.92604167 V 2.3714315 C 1.1014172,2.3451669 1.2381522,2.2673487 1.3280843,2.164209 1.4396442,2.0362655 1.4825968,1.8803011 1.4825968,1.7461466 c 0,-0.1820202 -0.099254,-0.328236 -0.2206583,-0.4314982 C 1.1613794,1.2291161 1.0428838,1.1631769 0.92604167,1.1022583 V 0.34106445 C 1.1278006,0.40770595 1.2509694,0.59157822 1.2609049,0.60151367 L 1.4815633,0.45681966 C 1.4709298,0.43840185 1.2852744,0.13312046 0.92604167,0.0651123 v -0.33382975 z m 0,0.60203044 V 0.96273193 C 0.59795685,0.92680582 0.54109725,0.89085721 0.49609375,0.85369466 0.40894554,0.78173023 0.37103678,0.72057719 0.37103678,0.63458659 c 0,-0.11379121 0.0448828,-0.17806461 0.12298991,-0.23202718 0.0461184,-0.0318622 0.10515015,-0.055329 0.16743164,-0.0692464 z M 0.92604167,1.4045654 c 0.062957,0.036396 0.11928403,0.073228 0.16381433,0.1111044 0.086955,0.073961 0.127124,0.1375791 0.127124,0.2304768 0,0.076897 -0.026249,0.1732654 -0.08785,0.2439128 -0.044072,0.050544 -0.1062294,0.09371 -0.20308833,0.1142049 z"
       sodipodi:nodetypes="ccsssccccccccssscccccccccssscccsscc" />
  </g>
  <g
     inkscape:groupmode="layer"
     id="layer35"
     inkscape:label="GlyphLayer-%"
     style="display:none">
    <path
       id="path67"
       style="color:#000000;fill:#000000;-inkscape-stroke:none"
       d="m 0.51573079,0.15864665 c -0.27273513,0 -0.46302083,0.1809201 -0.46302083,0.46302083 0,0.25936704 0.18434235,0.46293172 0.46302083,0.46302082 C 0.79467815,1.0847775 0.97917363,0.88649822 0.97875163,0.62166748 0.97830383,0.34065583 0.77022254,0.15864665 0.51573079,0.15864665 Z m 0,0.26458333 c 0.10371403,3.2434e-4 0.1984375,0.078182 0.1984375,0.1984375 0,0.13077607 -0.0880899,0.1984375 -0.1984375,0.1984375 -0.11173567,0 -0.1984375,-0.0800661 -0.1984375,-0.1984375 0,-0.12310413 0.10328784,-0.19873506 0.1984375,-0.1984375 z M 1.4024984,0.64853923 0.02738851,1.679484 0.18551839,1.892391 1.5606283,0.85937907 Z M 1.0717692,1.4552083 c -0.27273512,0 -0.46302083,0.1809201 -0.46302083,0.4630209 0,0.259367 0.18434231,0.4629317 0.46302083,0.4630208 C 1.3507165,2.3813392 1.535212,2.1830599 1.53479,1.9182292 1.5343422,1.6372175 1.326261,1.4552083 1.0717692,1.4552083 Z m 0,0.2645834 c 0.103714,3.243e-4 0.1984375,0.078182 0.1984375,0.1984375 0,0.130776 -0.08809,0.1984375 -0.1984375,0.1984375 -0.11173568,0 -0.19843749,-0.080066 -0.19843749,-0.1984375 0,-0.1231042 0.10328779,-0.1987351 0.19843749,-0.1984375 z" />
  </g>
  <g
     inkscape:groupmode="layer"
     id="layer36"
     inkscape:label="GlyphLayer-^"
     style="display:none">
    <path
       id="path70"
       style="color:#000000;display:inline;fill:#000000;-inkscape-stroke:none"
       d="M 0.59169515,0.13229167 0.11472168,1.0583333 H 0.41444499 L 0.75395915,0.396875 h 0.0795817 L 1.1735718,1.0583333 H 1.4727783 L 0.99632161,0.13229167 Z" />
  </g>
  <g
     inkscape:groupmode="layer"
     id="layer37"
     inkscape:label="GlyphLayer-&amp;"
     style="display:none">
    <path
       id="path72"
       style="color:#000000;fill:#000000;-inkscape-stroke:none"
       d="m 0.71468506,0.13280843 c -0.1620764,0 -0.30344499,0.0615966 -0.38860677,0.17001546 C 0.24091649,0.4112427 0.21083984,0.5500339 0.21083984,0.69349772 0.22087939,0.9037057 0.3338415,1.0832014 0.43149821,1.2634888 c -0.0634955,0.052605 -0.13097817,0.099728 -0.18551839,0.164331 -0.0947577,0.112241 -0.16588134,0.2550179 -0.16588135,0.4237468 0,0.1744559 0.08881753,0.318019 0.20308838,0.4041097 0.11427083,0.086091 0.25055696,0.1250569 0.37878825,0.1250569 0.16272015,0 0.27871189,-0.067473 0.3906738,-0.1364257 0.025185,0.036013 0.060708,0.087942 0.094051,0.1369425 H 1.4665771 C 1.4320871,2.3294896 1.3272321,2.1727374 1.2557373,2.0701579 1.3140402,1.99201 1.3824379,1.9165163 1.4138672,1.8339966 1.5127661,1.5743308 1.5079183,1.3223999 1.5079183,1.3223999 l -0.2635498,0.00207 c 0,0 -0.0011,0.2105741 -0.078548,0.4139282 -0.014803,0.038866 -0.045831,0.065395 -0.066146,0.1012858 C 0.97762232,1.6733653 0.87527013,1.4941822 0.77152913,1.3161987 0.86656338,1.2436203 0.96511824,1.1716834 1.0469645,1.0800374 1.1416157,0.97405333 1.21698,0.83877816 1.21698,0.67747803 c 0,-0.29859787 -0.21922096,-0.5446696 -0.50229494,-0.5446696 z m 0,0.26354981 c 0.13860478,0 0.23822835,0.10007537 0.23822835,0.28111979 0,0.0820749 -0.0342935,0.14746439 -0.10335286,0.22479248 C 0.79679697,0.96135163 0.71482491,1.023286 0.63458659,1.0857218 0.55677952,0.96534764 0.52113305,0.82678621 0.47645671,0.69349772 c 0,-0.10598724 0.0229436,-0.18370112 0.0568441,-0.22685954 0.0339005,-0.0431585 0.0788778,-0.0702799 0.18138428,-0.0702799 z M 0.56844076,1.4939657 c 0.10209511,0.1868277 0.21900895,0.3638016 0.33951416,0.5389851 -0.0679772,0.040717 -0.1323001,0.084233 -0.24597982,0.084233 -0.0689771,0 -0.15933594,-0.028214 -0.22065837,-0.074414 -0.0613224,-0.046199 -0.0976685,-0.1010725 -0.0976685,-0.1912028 0,-0.095854 0.0364671,-0.170506 0.10541993,-0.252181 0.0294737,-0.034912 0.079931,-0.070623 0.11937256,-0.1054199 z" />
  </g>
  <g
     inkscape:groupmode="layer"
     id="layer38"
     inkscape:label="GlyphLayer-*"
     style="display:none">
    <path
       id="path73"
       style="color:#000000;fill:#000000;-inkscape-stroke:none"
       d="M 0.6619751,0.2645833 V 0.76222733 L 0.23047689,0.51263017 0.09766846,0.74310703 0.5286499,0.99167073 0.09766846,1.2412678 0.23047689,1.4696777 0.6619751,1.2205973 V 1.7197916 H 0.9255249 V 1.2205973 L 1.3575399,1.4696777 1.4903483,1.2412678 1.0588501,0.99167073 1.4903483,0.74310703 1.3575399,0.51263017 0.9255249,0.76222733 V 0.2645833 Z"
       sodipodi:nodetypes="ccccccccccccccccccc" />
  </g>
  <g
     inkscape:groupmode="layer"
     id="layer39"
     inkscape:label="GlyphLayer-("
     style="display:none">
    <path
       style="color:#000000;fill:#000000;-inkscape-stroke:none"
       d="m 1.190625,-0.05291667 c -0.66145833,0 -0.92513021,0.45562502 -0.92513021,1.34937497 0,0.9131886 0.26367188,1.3500261 0.92513021,1.3500261 v -0.265625 c -0.66075341,0 -0.66145833,-0.5646195 -0.66145833,-1.0844011 0,-0.5027083 0,-1.08061731 0.66145833,-1.08479163 z"
       id="path74"
       sodipodi:nodetypes="csccscc" />
  </g>
  <g
     inkscape:groupmode="layer"
     id="layer40"
     inkscape:label="GlyphLayer-)"
     style="display:none">
    <path
       style="color:#000000;display:inline;fill:#000000;-inkscape-stroke:none"
       d="M 0.37113698,-0.0529167 V 0.21166667 C 1.0325953,0.21584067 1.0325953,0.79375 1.0325953,1.2964583 c 0,0.5197816 -7.049e-4,1.0844011 -0.66145832,1.0844011 v 0.265625 c 0.66145832,0 0.92513022,-0.4368375 0.92513022,-1.3500261 0,-0.89374995 -0.2636719,-1.349375 -0.92513022,-1.349375 z"
       id="path74-6"
       sodipodi:nodetypes="ccsccsc" />
  </g>
  <g
     inkscape:groupmode="layer"
     id="layer45"
     inkscape:label="GlyphLayer-["
     style="display:none">
    <path
       style="color:#000000;fill:#000000;-inkscape-stroke:none"
       d="M 0.39648438,-0.05273437 V 2.6464844 H 1.3222656 V 2.3808594 H 0.66210937 V 0.2109375 H 1.3222656 v -0.26367187 z"
       id="path75" />
  </g>
  <g
     inkscape:groupmode="layer"
     id="layer46"
     inkscape:label="GlyphLayer-]"
     style="display:none">
    <path
       style="color:#000000;fill:#000000;-inkscape-stroke:none"
       d="m 0.26458333,-0.05338547 v 0.2636719 h 0.6601562 V 2.3802083 h -0.6601562 v 0.265625 H 1.1903645 v -2.69921877 z"
       id="path75-7"
       sodipodi:nodetypes="ccccccccc" />
  </g>
  <g
     inkscape:groupmode="layer"
     id="layer61"
     inkscape:label="GlyphLayer-{"
     style="display:none">
    <path
       id="path76"
       style="color:#000000;fill:#000000;-inkscape-stroke:none"
       d="M 0.8387085,-0.0666626 C 0.7938413,-0.0676778 0.7462394,-0.0647591 0.69711507,-0.05270996 0.63161594,-0.03664443 0.55761019,1.9919485e-4 0.51159668,0.07441406 0.42128447,0.22007805 0.43733535,0.37327773 0.44545085,0.50384521 0.45356684,0.6344127 0.47712349,0.8760829 0.43253174,1.0030396 0.38956308,1.1253754 0.2238773,1.190625 0.10593669,1.190625 v 0.2661336 c 0.11794068,0 0.28362609,0.06525 0.32659505,0.1875855 0.044591,0.1269566 0.0210391,0.36811 0.0129191,0.4986775 -0.008116,0.1305675 -0.0241661,0.2842839 0.0661458,0.429948 0.0460135,0.074215 0.12001946,0.1105412 0.18551839,0.1266072 0.0654991,0.016069 0.12839045,0.015766 0.18551839,0.011886 0.11425556,-0.00776 -0.009415,0.00107 0.24562648,-0.028036 L 1.0984743,2.4280743 c -0.19819741,0.030661 -0.12502023,0.022636 -0.20550615,0.028106 -0.0910074,0.00618 -0.13906161,3.881e-4 -0.15657959,-0.022221 -0.042073,-0.054299 -0.0273393,-0.1433433 -0.0273885,-0.2754354 -4.91e-5,-0.131838 0.011145,-0.3980775 0,-0.5141805 C 0.69661861,1.5153575 0.61208931,1.4036099 0.49919434,1.3234334 0.61208931,1.243257 0.6966186,1.1320261 0.70900065,1.0030396 c 0.0111453,-0.11610299 -4.91e-5,-0.38285944 0,-0.51469731 4.917e-5,-0.13209224 -0.0146842,-0.22113613 0.0273885,-0.27543539 0.0175183,-0.0226092 0.065572,-0.0278869 0.15657959,-0.0217041 0.0804855,0.005468 0.005168,0 0.21067316,0.0132635 l 0.024618,-0.25777673 C 0.97419087,-0.05890643 0.86351622,-0.06610112 0.8387085,-0.0666626 Z"
       sodipodi:nodetypes="ssscsccccscccccssscssssccs" />
  </g>
  <g
     inkscape:groupmode="layer"
     id="layer62"
     inkscape:label="GlyphLayer-}"
     style="display:none">
    <path
       id="path76-5"
       style="color:#000000;fill:#000000;-inkscape-stroke:none"
       d="m 0.46870813,-0.04824575 0.0380644,0.25114746 c 0.18579502,-0.013263 0.10737658,-0.007793 0.18786208,-0.013263 0.0910076,-0.006183 0.13906129,-9.05e-4 0.15657959,0.021704 0.0420727,0.0542993 0.0273393,0.1433432 0.0273885,0.2754354 4.91e-5,0.13183786 -0.0111453,0.39859431 0,0.51469729 0.012382,0.1289865 0.0969113,0.2402174 0.2098064,0.3203938 -0.11289501,0.080176 -0.19742441,0.1919241 -0.20980641,0.3209101 -0.011145,0.116103 4.91e-5,0.3823425 0,0.5141805 -4.92e-5,0.1320921 0.0146845,0.2211364 -0.0273885,0.2754354 -0.017518,0.022609 -0.0655722,0.028401 -0.15657959,0.022221 -0.0804859,-0.00547 0,0 -0.19819735,-0.030661 l -0.0277292,0.2593405 c 0.2591756,0.028077 0.13130788,0.018844 0.24556358,0.026602 0.0607089,0.00412 0.26462176,0.018141 0.36173507,-0.1384928 0.090312,-0.1456641 0.074266,-0.2993805 0.066146,-0.429948 -0.00812,-0.130567 -0.031672,-0.3717204 0.012919,-0.498677 C 1.1980407,1.5204448 1.3637261,1.4551948 1.4816668,1.4551948 V 1.1890612 c -0.1179406,0 -0.2836261,-0.06525 -0.3265951,-0.1875854 -0.044592,-0.12695669 -0.021039,-0.36862689 -0.012919,-0.49919439 0.00811,-0.1305675 0.024166,-0.2837672 -0.066146,-0.4294311 -0.046013,-0.0742151 -0.12037564,-0.10966916 -0.18551834,-0.1271241 -0.10209759,-0.02735691 -0.36661016,0.001165 -0.42178023,0.006028 z"
       sodipodi:nodetypes="ccsssscssscccssccccscssc" />
  </g>
  <g
     inkscape:groupmode="layer"
     id="layer47"
     inkscape:label="GlyphLayer-&lt;"
     style="display:none">
    <path
       id="path77"
       style="color:#000000;fill:#000000;-inkscape-stroke:none"
       d="M 1.4815633,0.39673959 0.10593669,0.99566944 V 1.3876476 L 1.4815633,1.9845104 V 1.6961559 L 0.396875,1.2243501 V 1.1574171 L 1.4815633,0.68612801 Z"
       sodipodi:nodetypes="ccccccccc" />
  </g>
  <g
     inkscape:groupmode="layer"
     id="layer48"
     inkscape:label="GlyphLayer-&gt;"
     style="display:none">
    <path
       id="path77-9"
       style="color:#000000;display:inline;fill:#000000;-inkscape-stroke:none"
       d="M 0.1060401,0.68612801 1.1907284,1.1574171 v 0.066933 L 0.1060401,1.6961559 V 1.9845104 L 1.4816667,1.3876476 V 0.99566944 L 0.1060401,0.39673959 Z"
       sodipodi:nodetypes="ccccccccc" />
  </g>
  <g
     inkscape:groupmode="layer"
     id="layer41"
     inkscape:label="GlyphLayer-_"
     style="display:none">
    <path
       style="color:#000000;fill:#000000;-inkscape-stroke:none"
       d="m 0.05291667,2.3802083 v 0.265625 H 1.5345833 v -0.265625 z"
       id="path78"
       sodipodi:nodetypes="ccccc" />
  </g>
  <g
     inkscape:groupmode="layer"
     id="layer42"
     inkscape:label="GlyphLayer--"
     style="display:none">
    <path
       style="color:#000000;fill:#000000;-inkscape-stroke:none"
       d="m 0.10546875,1.0572833 v 0.265625 H 1.4824219 v -0.265625 z"
       id="path79"
       sodipodi:nodetypes="ccccc" />
  </g>
  <g
     inkscape:groupmode="layer"
     id="layer43"
     inkscape:label="GlyphLayer-+"
     style="display:none">
    <path
       id="path79-7"
       style="color:#000000;display:inline;fill:#000000;-inkscape-stroke:none"
       d="M 0.66094157,0.44855143 V 1.0583333 H 0.10541992 V 1.3239502 H 0.66094157 V 1.931665 H 0.92655843 V 1.3239502 H 1.4825968 V 1.0583333 H 0.92655843 V 0.44855143 Z" />
  </g>
  <g
     inkscape:groupmode="layer"
     id="layer44"
     inkscape:label="GlyphLayer-="
     style="display:none">
    <path
       id="path79-1"
       style="color:#000000;display:inline;fill:#000000;-inkscape-stroke:none"
       inkscape:label="path79-1"
       d="M 0.10490316,0.79168294 V 1.0572998 H 1.4815633 V 0.79168294 Z M 0.10541992,1.5068848 V 1.7725016 H 1.4820801 V 1.5068848 Z" />
  </g>
  <g
     inkscape:groupmode="layer"
     id="layer49"
     inkscape:label="GlyphLayer-/"
     style="display:none">
    <path
       id="path80"
       style="color:#000000;fill:#000000;-inkscape-stroke:none"
       d="M 1.2247314,-0.05270996 0.06201172,2.6458333 H 0.34829915 L 1.5115356,-0.05270996 Z" />
  </g>
  <g
     inkscape:groupmode="layer"
     id="layer50"
     inkscape:label="GlyphLayer-\"
     style="display:none">
    <path
       id="path80-5"
       style="color:#000000;fill:#000000;-inkscape-stroke:none"
       d="M 0.06898805,-0.05270997 1.2322244,2.6458333 H 1.5185119 L 0.35579225,-0.05270997 Z"
       sodipodi:nodetypes="ccccc" />
  </g>
  <g
     inkscape:groupmode="layer"
     id="layer51"
     inkscape:label="GlyphLayer-|"
     style="display:none">
    <path
       style="color:#000000;fill:#000000;-inkscape-stroke:none"
       d="M 0.66210937,0 V 3.1757813 H 0.92578125 V 0 Z"
       id="path81" />
  </g>
  <g
     inkscape:groupmode="layer"
     id="layer52"
     inkscape:label="GlyphLayer-,"
     style="display:none">
    <path
       style="color:#000000;fill:#000000;-inkscape-stroke:none"
       d="M 0.63500002,1.984375 0.42333335,3.0427083 H 0.68791669 L 0.95249999,1.984375 Z"
       id="path49"
       sodipodi:nodetypes="ccccc" />
  </g>
  <g
     inkscape:groupmode="layer"
     id="layer54"
     inkscape:label="GlyphLayer-?"
     style="display:none">
    <path
       id="path34-1"
       style="display:inline;stroke-width:0.264583"
       d="m 0.15037842,0.46095378 0.22634277,0.13694254 c 0,0 0.11044822,-0.21057985 0.46715495,-0.20515543 0.0865988,0.001317 0.18227086,0.0230266 0.24391276,0.0661458 0.061642,0.0431192 0.1038697,0.0967283 0.1038696,0.22840983 0,0.0487325 -0.016581,0.0864328 -0.053227,0.13125814 C 1.1017858,0.86337994 1.0430788,0.9089133 0.97875163,0.95704753 0.91442376,1.0051817 0.84536573,1.0547368 0.78341471,1.1172445 0.72146371,1.1797521 0.66197511,1.2659751 0.6619751,1.3751099 V 1.7208252 H 0.9255249 V 1.3751099 c 0,-0.076896 0.1348524,-0.1449386 0.2113566,-0.2051555 0.067964,-0.050855 0.142583,-0.1089802 0.2051554,-0.18551836 0.062572,-0.0765381 0.1131714,-0.17863975 0.1131714,-0.29713949 0,-0.20207796 -0.090952,-0.35817946 -0.2149739,-0.44493408 C 1.1162125,0.15560784 0.97280458,0.12899812 0.84956055,0.12712402 0.51745915,0.12207381 0.26345063,0.30067187 0.15037842,0.46095378 Z M 0.79375,1.9709391 c -0.12420645,0 -0.22479252,0.1011028 -0.22479248,0.2253093 2e-8,0.1242063 0.10058607,0.2247925 0.22479248,0.2247925 0.1242064,0 0.2247925,-0.1005862 0.2247925,-0.2247925 0,-0.1242065 -0.10058606,-0.2253093 -0.2247925,-0.2253093 z"
       sodipodi:nodetypes="ccsssscssccscsssscsssss" />
  </g>
  <g
     inkscape:groupmode="layer"
     id="layer55"
     inkscape:label="GlyphLayer-`"
     style="display:none">
    <path
       id="path60"
       style="color:#000000;fill:#000000;fill-opacity:1;stroke:none;stroke-opacity:1;-inkscape-stroke:none"
       d="M 0.52916667,-0.05291667 0.74827474,0.60854166 H 1.0273275 L 0.80666911,-0.05291667 Z"
       sodipodi:nodetypes="ccccc" />
  </g>
  <g
     inkscape:groupmode="layer"
     id="layer56"
     inkscape:label="GlyphLayer-~"
     style="display:none">
    <path
       style="color:#000000;fill:#000000;-inkscape-stroke:none"
       d="m 0.44921875,0.87304688 c -0.12561957,0 -0.24678318,0.0575956 -0.3125,0.15625002 -0.06571682,0.098654 -0.08398437,0.2185828 -0.08398438,0.3535156 v 0.125 h 0.26562501 v -0.125 c 0,-0.1067415 0.0193207,-0.1754417 0.0390625,-0.2050781 0.0197418,-0.029636 0.0300846,-0.039063 0.0917969,-0.039063 0.0616009,0 0.15213682,0.06001 0.26171875,0.1523437 0.10958193,0.092333 0.23877916,0.2167969 0.42773437,0.2167969 0.2163693,0 0.3964843,-0.2098953 0.3964843,-0.5019531 V 0.87304688 H 1.2695312 V 1.0058594 c 0,0.1965409 -0.082646,0.2382812 -0.1308593,0.2382812 -0.055095,0 -0.1456346,-0.061422 -0.2558594,-0.1542969 C 0.7725877,0.99696885 0.64017227,0.87304688 0.44921875,0.87304688 Z"
       id="path61" />
  </g>
  <g
     inkscape:groupmode="layer"
     id="layer57"
     inkscape:label="GlyphLayer-;"
     style="display:none">
    <path
       id="path49-4"
       style="color:#000000;display:inline;fill:#000000;-inkscape-stroke:none"
       d="m 0.56895752,0.79375 c 0,0.12420638 0.1005861,0.2247925 0.22479248,0.2247925 0.12420638,0 0.2247925,-0.10058612 0.2247925,-0.2247925 0,-0.12420648 -0.10058602,-0.22479248 -0.2247925,-0.22479248 -0.1063985,0 -0.2247926,0.0841101 -0.22479248,0.22479248 z M 0.63510335,1.984375 0.42322998,3.0427083 H 0.68781331 L 0.95239665,1.984375 Z"
       sodipodi:nodetypes="sssssccccc" />
  </g>
  <g
     inkscape:groupmode="layer"
     id="layer58"
     inkscape:label="GlyphLayer-:"
     style="display:none">
    <path
       id="path34-3-8"
       style="display:inline;stroke-width:0.264583"
       d="m 0.56895752,0.79375 c 0,0.12420638 0.1005861,0.2247925 0.22479248,0.2247925 0.12420638,0 0.2247925,-0.10058612 0.2247925,-0.2247925 0,-0.12420648 -0.10058602,-0.22479248 -0.2247925,-0.22479248 -0.1063985,0 -0.2247926,0.0841101 -0.22479248,0.22479248 z M 0.79375,1.9709391 c -0.12420648,0 -0.22479258,0.1011028 -0.22479248,0.2253093 0,0.1242063 0.1005861,0.2247925 0.22479248,0.2247925 0.12420638,0 0.2247925,-0.1005862 0.2247925,-0.2247925 0,-0.1242065 -0.10058602,-0.2253093 -0.2247925,-0.2253093 z"
       sodipodi:nodetypes="ssssssssss" />
  </g>
  <g
     inkscape:groupmode="layer"
     id="layer59"
     inkscape:label="GlyphLayer-'"
     style="display:none">
    <path
       style="color:#000000;fill:#000000;-inkscape-stroke:none"
       d="m 0.60854167,0.05291667 0.0529166,0.873125 h 0.26458337 l 0.0529167,-0.873125 z"
       id="path64"
       sodipodi:nodetypes="ccccc" />
  </g>
  <g
     inkscape:groupmode="layer"
     id="layer60"
     inkscape:label="GlyphLayer-&quot;"
     style="display:none">
    <path
       id="path64-4"
       style="color:#000000;fill:#000000;-inkscape-stroke:none"
       d="m 0.29093831,0.05270996 0.0532267,0.87333171 h 0.26458333 l 0.05271,-0.87333171 z m 0.63510336,0 0.05271,0.87333171 H 1.243335 l 0.053227,-0.87333171 z" />
  </g>
</svg>
